<svg id="Layer_1" data-name="Layer 1" xmlns="http://www.w3.org/2000/svg" width="32" height="32" viewBox="0 0 32 32"><path d="M22.7,23.7l-2.4-3.9a19.3,19.3,0,0,0,.8-4.8v-.7a9.6,9.6,0,0,0-3.2-7.1,6.2,6.2,0,0,1-1.4-1.9h0l.5-.2a.6.6,0,0,0,.4-.6V4.3a1.4,1.4,0,0,0-.9-.2V3.3c.1-.2.1-.2.3-.2h0c.2,0,.2-.1.3-.2s-.1-.3-.1-.5h-.1A6.8,6.8,0,0,1,16.3.6c0-.4-.1-.5-.2-.6h-.2c0,.1-.2.1-.2.6a4.1,4.1,0,0,1-.5,1.8h0a.6.6,0,0,0-.1.4h0a.2.2,0,0,0,.2.2h.1c.2,0,.2,0,.2.2s.1.3.1.5a.4.4,0,0,1-.1.3,1.4,1.4,0,0,0-.9.2v.2a.7.7,0,0,0,.3.6l.6.2h-.1a5.2,5.2,0,0,1-1.4,1.9,9.6,9.6,0,0,0-3.2,7.1V15a19.3,19.3,0,0,0,.8,4.8L9.3,23.7,7.9,32H9.5L11,26.7l2.6-2.1h.3c.1.3.1.6.2.7s0,.5,1.2.6v6h1.4V26c1.2-.1,1.3-.4,1.3-.5s.1-.5.1-.8h.4L21,26.7,22.5,32h1.6Z" fill="#b4fff4"/></svg>